# File created by Blade
# Date/Time:  Thu Sep 25 19:04:16 2014
# Frame Rate: 120.000 fps
#------------------------------------------------------
:FULLY-SPECIFIED
:DEGREES
444
root -3.908662 29.927029 -8.984072 52.127734 21.223545 -42.530252
Spine 17.996867 -21.197236 -40.200214
Head -56.876031 -14.562978 25.195151
LeftShoulder -5.849730 5.667533 37.447781
LeftArm 5.059178 -25.342971 -20.904555
LeftForeArm 8.053608 -0.000000 15.141619
LeftHand -29.979936 0.000000 26.426258
LeftHandThumb1 -26.253704 0.000000 33.147579
RightShoulder -20.129962 6.739888 -40.851878
RightArm -47.689286 -17.874777 64.787422
RightForeArm -7.813313 0.000000 9.331048
RightHand -16.215008 -0.000000 7.264964
RightHandThumb1 -24.326973 -0.000000 -32.862282
LeftUpLeg -70.313268 58.271491 34.753255
LeftLeg -3.090987 -0.000000 0.000000
LeftFoot 13.078949 7.879048 -38.049186
LeftToeBase 9.078085 -0.000000 -0.000000
RightUpLeg -55.011520 8.299165 31.485543
RightLeg -3.653386 -0.000000 0.000000
RightFoot 1.848475 -14.042403 17.721282
RightToeBase 3.230086 -0.000000 -0.000000
445
root -3.901659 29.921428 -9.013945 52.414142 21.313166 -42.552891
Spine 18.003526 -21.253694 -40.214613
Head -56.779397 -14.697800 25.165809
LeftShoulder -6.004215 5.665066 37.396384
LeftArm 5.076322 -25.802468 -21.015859
LeftForeArm 8.701711 -0.000000 15.635126
LeftHand -30.634462 -0.000000 29.826028
LeftHandThumb1 -26.253704 0.000000 33.147579
RightShoulder -20.129801 6.655400 -40.902459
RightArm -47.757996 -17.833217 65.018547
RightForeArm -7.829291 -0.000000 9.274287
RightHand -16.156911 -0.000000 7.454167
RightHandThumb1 -24.326973 -0.000000 -32.862282
LeftUpLeg -71.027789 58.410239 34.203867
LeftLeg -3.117995 -0.000000 0.000000
LeftFoot 13.126675 7.839937 -38.078376
LeftToeBase 9.101338 -0.000000 -0.000000
RightUpLeg -55.325252 8.418940 31.496096
RightLeg -3.677752 -0.000000 0.000000
RightFoot 1.887273 -14.072293 17.703209
RightToeBase 3.254993 -0.000000 -0.000000
446
root -3.893571 29.916201 -9.045633 52.727324 21.384081 -42.551500
Spine 17.983006 -21.335931 -40.227733
Head -56.695164 -14.835045 25.084405
LeftShoulder -6.008334 5.570193 37.310573
LeftArm 4.675156 -26.395067 -20.932585
LeftForeArm 9.247702 -0.000000 16.540251
LeftHand -31.240950 -0.000000 32.951377
LeftHandThumb1 -26.253704 0.000000 33.147579
RightShoulder -20.135205 6.557672 -40.963311
RightArm -47.807306 -17.781772 65.230185
RightForeArm -7.815470 0.000000 9.258897
RightHand -16.174782 -0.000000 7.435392
RightHandThumb1 -24.326973 -0.000000 -32.862282
LeftUpLeg -71.981801 58.588707 33.355971
LeftLeg -3.148639 -0.000000 0.000000
LeftFoot 13.284622 7.693031 -38.052154
LeftToeBase 9.110224 -0.000000 -0.000000
RightUpLeg -55.674352 8.571514 31.421177
RightLeg -3.696196 -0.000000 0.000000
RightFoot 1.923544 -14.156243 17.855604
RightToeBase 3.077537 -0.000000 -0.000000
447
root -3.880598 29.911525 -9.079714 53.067301 21.464967 -42.511848
Spine 17.981935 -21.464346 -40.250536
Head -56.637275 -14.899418 25.052555
LeftShoulder -5.944150 5.347698 37.190528
LeftArm 4.016357 -26.928943 -20.670517
LeftForeArm 9.950785 -0.000000 17.702222
LeftHand -31.965090 0.000000 35.879786
LeftHandThumb1 -26.253704 0.000000 33.147579
RightShoulder -20.129230 6.487929 -41.049590
RightArm -47.856579 -17.746460 65.462431
RightForeArm -7.668414 -0.000000 9.234931
RightHand -16.081666 -0.000000 7.626283
RightHandThumb1 -24.326973 -0.000000 -32.862282
LeftUpLeg -73.090792 58.735180 32.323319
LeftLeg -3.200974 -0.000000 0.000000
LeftFoot 13.502036 7.562490 -38.067179
LeftToeBase 8.874738 -0.000000 -0.000000
RightUpLeg -56.069219 8.654149 31.398321
RightLeg -3.668639 -0.000000 0.000000
RightFoot 1.952579 -14.158474 17.855007
RightToeBase 3.110639 -0.000000 -0.000000
448
root -3.871748 29.905584 -9.110472 53.352180 21.513801 -42.530018
Spine 17.944133 -21.486881 -40.236782
Head -56.567129 -14.982976 24.979214
LeftShoulder -5.808069 5.183070 37.101166
LeftArm 3.233521 -27.832646 -20.395239
LeftForeArm 10.832831 -0.000000 19.136640
LeftHand -32.603427 -0.000000 37.807922
LeftHandThumb1 -26.253704 0.000000 33.147579
RightShoulder -20.158796 6.393719 -41.135486
RightArm -47.890969 -17.658798 65.613859
RightForeArm -7.845765 -0.000000 9.294850
RightHand -16.218571 0.000000 7.667891
RightHandThumb1 -24.326973 -0.000000 -32.862282
LeftUpLeg -74.075561 58.927265 31.400373
LeftLeg -3.271100 -0.000000 0.000000
LeftFoot 13.778129 7.392805 -38.179103
LeftToeBase 8.607010 -0.000000 -0.000000
RightUpLeg -56.394557 8.774225 31.409501
RightLeg -3.646267 -0.000000 0.000000
RightFoot 1.972514 -14.169418 17.696887
RightToeBase 3.237690 -0.000000 -0.000000
449
root -3.860944 29.900475 -9.143937 53.661005 21.542960 -42.507528
Spine 17.923000 -21.567397 -40.292263
Head -56.508837 -15.028484 24.942203
LeftShoulder -5.735662 5.082218 37.023954
LeftArm 2.529250 -28.861930 -20.105122
LeftForeArm 11.621161 -0.000000 20.560204
LeftHand -33.139444 -0.000000 39.645426
LeftHandThumb1 -26.253704 0.000000 33.147579
RightShoulder -20.147103 6.367196 -41.195564
RightArm -47.984252 -17.668036 65.841991
RightForeArm -7.774784 -0.000000 9.348562
RightHand -16.226322 0.000000 7.678381
RightHandThumb1 -24.326973 -0.000000 -32.862282
LeftUpLeg -74.963091 59.066153 30.556179
LeftLeg -3.363430 -0.000000 0.000000
LeftFoot 14.030918 7.336337 -38.363699
LeftToeBase 8.165400 -0.000000 -0.000000
RightUpLeg -56.756561 8.878596 31.387153
RightLeg -3.594205 -0.000000 0.000000
RightFoot 1.992005 -14.177517 17.628698
RightToeBase 3.244413 -0.000000 -0.000000
450
root -3.850305 29.895435 -9.175090 53.951766 21.588311 -42.491946
Spine 17.915539 -21.606780 -40.308792
Head -56.517115 -15.107887 24.924682
LeftShoulder -5.700299 4.885054 36.951147
LeftArm 1.872262 -29.597394 -19.785629
LeftForeArm 12.228961 0.000000 21.972434
LeftHand -33.621982 -0.000000 41.174136
LeftHandThumb1 -26.253704 0.000000 33.147579
RightShoulder -20.159289 6.369382 -41.291646
RightArm -48.068681 -17.614742 65.992013
RightForeArm -7.832676 -0.000000 9.343941
RightHand -16.131132 -0.000000 7.914548
RightHandThumb1 -24.326973 -0.000000 -32.862282
LeftUpLeg -75.729806 59.180183 29.854779
LeftLeg -3.488507 -0.000000 0.000000
LeftFoot 14.256454 7.307687 -38.423380
LeftToeBase 7.972157 -0.000000 -0.000000
RightUpLeg -57.090021 8.948610 31.420070
RightLeg -3.551153 -0.000000 0.000000
RightFoot 2.029923 -14.134245 17.558270
RightToeBase 3.190708 -0.000000 -0.000000
451
root -3.839549 29.890192 -9.208040 54.234912 21.643191 -42.470841
Spine 17.924796 -21.613986 -40.293157
Head -56.593763 -15.144213 24.900799
LeftShoulder -5.697885 4.841982 36.904825
LeftArm 1.532835 -30.788216 -19.668152
LeftForeArm 13.202060 -0.000000 23.110203
LeftHand -34.124760 -0.000000 42.505363
LeftHandThumb1 -26.253704 0.000000 33.147579
RightShoulder -20.206045 6.284458 -41.334966
RightArm -48.078756 -17.584628 66.105154
RightForeArm -7.978410 -0.000000 9.378670
RightHand -16.161005 -0.000000 8.096855
RightHandThumb1 -24.326973 -0.000000 -32.862282
LeftUpLeg -76.058977 59.212392 29.683183
LeftLeg -3.566360 -0.000000 0.000000
LeftFoot 14.262567 7.445764 -38.563347
LeftToeBase 7.718330 -0.000000 -0.000000
RightUpLeg -57.411510 9.005219 31.456212
RightLeg -3.530678 -0.000000 0.000000
RightFoot 2.029560 -14.097095 17.495119
RightToeBase 3.308263 -0.000000 -0.000000
452
root -3.831571 29.884648 -9.240312 54.478327 21.685180 -42.489077
Spine 17.936827 -21.609466 -40.281179
Head -56.632667 -15.113180 24.918038
LeftShoulder -5.730572 4.820489 36.879146
LeftArm 1.139671 -31.526028 -19.456554
LeftForeArm 13.819898 -0.000000 24.232745
LeftHand -34.523360 -0.000000 43.792679
LeftHandThumb1 -26.253704 0.000000 33.147579
RightShoulder -20.186398 6.250548 -41.314661
RightArm -48.107819 -17.579549 66.205190
RightForeArm -8.017000 0.000000 9.368397
RightHand -16.067006 -0.000000 8.296349
RightHandThumb1 -24.326973 -0.000000 -32.862282
LeftUpLeg -76.168160 59.256182 29.764032
LeftLeg -3.623562 -0.000000 0.000000
LeftFoot 14.162658 7.662099 -38.715364
LeftToeBase 7.754924 -0.000000 -0.000000
RightUpLeg -57.675653 9.084729 31.511411
RightLeg -3.538164 -0.000000 0.000000
RightFoot 2.079874 -14.079285 17.411942
RightToeBase 3.321470 -0.000000 -0.000000
453
root -3.826596 29.887880 -9.273099 54.739750 21.810081 -42.503213
Spine 17.953760 -21.640184 -40.189595
Head -56.669528 -15.117997 24.920142
LeftShoulder -5.731996 4.718373 36.869103
LeftArm 0.757708 -32.235684 -19.247711
LeftForeArm 14.488050 -0.000000 25.241558
LeftHand -35.021058 -0.000000 44.802410
LeftHandThumb1 -26.253704 0.000000 33.147579
RightShoulder -20.166496 6.229468 -41.346704
RightArm -48.154439 -17.645208 66.415275
RightForeArm -8.142976 -0.000000 9.329872
RightHand -16.127741 -0.000000 8.488481
RightHandThumb1 -24.326973 -0.000000 -32.862282
LeftUpLeg -76.175613 59.201987 30.074129
LeftLeg -3.563088 -0.000000 0.000000
LeftFoot 13.492153 7.452059 -36.979338
LeftToeBase 9.533587 -0.000000 -0.000000
RightUpLeg -57.969001 9.120852 31.655970
RightLeg -3.544796 -0.000000 0.000000
RightFoot 2.197883 -14.026138 17.353417
RightToeBase 3.206850 -0.000000 -0.000000
454
root -3.822856 29.885455 -9.306336 54.957773 21.926535 -42.518047
Spine 17.978172 -21.609122 -40.078458
Head -56.689990 -15.214129 24.890682
LeftShoulder -5.793031 4.888771 36.848336
LeftArm 0.657605 -33.355178 -19.184125
LeftForeArm 14.864394 0.000000 26.166020
LeftHand -34.891609 -0.000000 44.367125
LeftHandThumb1 -26.253704 0.000000 33.147579
RightShoulder -20.175559 6.154375 -41.353155
RightArm -48.124228 -17.659283 66.489166
RightForeArm -8.342671 0.000000 9.310857
RightHand -16.130540 -0.000000 8.828331
RightHandThumb1 -24.326973 -0.000000 -32.862282
LeftUpLeg -76.126069 59.155096 30.445378
LeftLeg -3.497436 -0.000000 0.000000
LeftFoot 13.131821 7.320168 -36.663270
LeftToeBase 9.370788 -0.000000 -0.000000
RightUpLeg -58.217396 9.164167 31.750459
RightLeg -3.578742 -0.000000 0.000000
RightFoot 2.221086 -13.997999 17.345781
RightToeBase 3.325300 -0.000000 -0.000000
